<svg xmlns="http://www.w3.org/2000/svg" xmlns:xlink="http://www.w3.org/1999/xlink" width="26" height="20" viewBox="0 0 26 20"><defs><path id="ovoua" d="M681.11 656.08a173.05 173.05 0 0 1 1.64-9.23 251.68 251.68 0 0 1 2.17-9.85h-5.22c-.63 1.42-1.28 2.91-1.94 4.48a113.09 113.09 0 0 0-3.48 9.38c-.5 1.55-.92 3.01-1.28 4.38l.53.84zm9.33-19.08a173.09 173.09 0 0 1-1.65 9.25 354.32 354.32 0 0 1-2.16 9.83h5.22a139.38 139.38 0 0 0 3.79-9.16c.6-1.59 1.14-3.15 1.64-4.68.5-1.54.92-3 1.28-4.4l-.54-.84z"/></defs><g><g transform="translate(-673 -637)"><use fill="#00ba55" xlink:href="#ovoua"/></g></g></svg>