<svg width="200" height="54" viewBox="0 0 200 54" xmlns="http://www.w3.org/2000/svg" xmlns:xlink="http://www.w3.org/1999/xlink"><title>nlt_logo</title><defs><path id="path-1" d="M0 53.0204082L199.554167 53.0204082 199.554167 0.0000599404762 0 0.0000599404762z"/></defs><g id="Catalog" fill="none" fill-rule="evenodd"><g id="SERP" transform="translate(-147 -24)"><g id="Header"><g transform="translate(147 24)" id="nlt_logo"><g id="Group-3" transform="translate(0 38.035)" fill="#000"><path d="M198.558393,0.29328875 L1.03577381,0.29328875 C0.445297619,0.29328875 5.95238095e-05,0.995791131 5.95238095e-05,1.92846494 L5.95238095e-05,6.92510304 C5.95238095e-05,7.85717744 0.445297619,8.55967982 1.03577381,8.55967982 L198.558393,8.55967982 C199.116726,8.55967982 199.554226,7.84219232 199.554226,6.92510304 L199.554226,1.92846494 C199.554226,1.01137565 199.116726,0.29328875 198.558393,0.29328875" id="Fill-1"/></g><path id="Fill-4" fill="#105EB7" d="M30.6102976 31.5287504L38.7716071 53.0204082 162.046607 53.0204082 170.244821 31.5287504z"/><path id="Fill-6" fill="#FFF" d="M42.9414286 36.4920017L46.6277381 36.4920017 46.6277381 45.5478088 52.3813095 45.5478088 52.3813095 48.5058713 42.9414286 48.5058713z"/><mask id="mask-2" fill="#fff"><use xlink:href="#path-1"/></mask><path id="Fill-8" fill="#FFF" mask="url(#mask-2)" d="M54.2041667 48.5056915L57.8988095 48.5056915 57.8988095 36.4918218 54.2041667 36.4918218z"/><path id="Fill-10" fill="#FFF" mask="url(#mask-2)" d="M60.5579167 36.4920017L69.6727976 36.4920017 69.6727976 39.073638 64.2608929 39.073638 64.2608929 41.1715546 68.8829167 41.1715546 68.8829167 43.5973457 64.2608929 43.5973457 64.2608929 48.5058713 60.5579167 48.5058713z"/><path id="Fill-11" fill="#FFF" mask="url(#mask-2)" d="M70.8202381 36.4920017L82.0261905 36.4920017 82.0261905 39.4584558 78.2666667 39.4584558 78.2666667 48.5058713 74.5797619 48.5058713 74.5797619 39.4584558 70.8202381 39.4584558z"/><path id="Fill-12" fill="#FFF" mask="url(#mask-2)" d="M93.9531548 36.4920017L105.159702 36.4920017 105.159702 39.4584558 101.399583 39.4584558 101.399583 48.5058713 97.7126786 48.5058713 97.7126786 39.4584558 93.9531548 39.4584558z"/><path d="M110.600952,41.3598277 L112.155119,41.3598277 C112.323571,41.3598277 112.648571,41.3052818 113.131905,41.1961902 C113.375952,41.147039 113.575357,41.021164 113.730119,40.8191646 C113.884881,40.6171652 113.961667,40.3845961 113.961667,40.1226563 C113.961667,39.7348414 113.839643,39.4369372 113.595595,39.2289438 C113.351548,39.0215497 112.893214,38.9178527 112.220595,38.9178527 L110.600952,38.9178527 L110.600952,41.3598277 Z M106.897976,48.5059312 L106.897976,36.4920616 L113.042619,36.4920616 C114.181905,36.4920616 115.052738,36.590364 115.654524,36.7869688 C116.256905,36.9835735 116.742024,37.348611 117.111667,37.8808824 C117.480119,38.4137533 117.664643,39.0623092 117.664643,39.8271497 C117.664643,40.4942872 117.523571,41.0691164 117.240833,41.5522366 C116.95869,42.0359563 116.570595,42.427967 116.076548,42.7288682 C115.761667,42.9194789 115.330119,43.0783211 114.781905,43.2041961 C115.22119,43.3516497 115.540833,43.4991033 115.742024,43.6465568 C115.877143,43.7448592 116.073571,43.9558497 116.33131,44.2783295 C116.589048,44.6014086 116.761071,44.8501616 116.847381,45.0245884 L118.633095,48.5059312 L114.467024,48.5059312 L112.497381,44.8345771 C112.247381,44.3592491 112.025357,44.0505557 111.829524,43.9084967 C111.563452,43.7226813 111.262262,43.6303729 110.926548,43.6303729 L110.600952,43.6303729 L110.600952,48.5059312 L106.897976,48.5059312 Z" id="Fill-13" fill="#FFF" mask="url(#mask-2)"/><path d="M127.292024,36.4920017 L130.970595,36.4920017 L130.970595,43.6500933 C130.970595,44.3591892 130.860476,45.0299231 130.640833,45.6598975 C130.42119,46.2904713 130.076548,46.8425231 129.6075,47.3142546 C129.137857,47.7865856 128.645,48.1186558 128.130119,48.3092665 C127.414048,48.5772005 126.553929,48.7108677 125.550357,48.7108677 C124.97,48.7108677 124.336071,48.6701082 123.650357,48.5879898 C122.964048,48.5058713 122.390238,48.3434326 121.928929,48.1006737 C121.467619,47.8573154 121.04619,47.5120582 120.663452,47.0649023 C120.28131,46.6171469 120.01881,46.1562046 119.878333,45.6808767 C119.650357,44.9160362 119.536667,44.2393082 119.536667,43.6500933 L119.536667,36.4920017 L123.214643,36.4920017 L123.214643,43.8203243 C123.214643,44.4754737 123.395,44.986766 123.75631,45.3559993 C124.116429,45.7240338 124.617024,45.9080511 125.2575,45.9080511 C125.892024,45.9080511 126.389643,45.7270308 126.750952,45.3637915 C127.111071,45.0005523 127.292024,44.4856636 127.292024,43.8203243 L127.292024,36.4920017 Z" id="Fill-14" fill="#FFF" mask="url(#mask-2)"/><path d="M141.353929,43.5891339 L144.584881,44.5727571 C144.367619,45.4844517 144.025952,46.2468946 143.559286,46.8588868 C143.092619,47.4708791 142.513452,47.9324208 141.821786,48.2441112 C141.130119,48.5552023 140.250357,48.7110476 139.18131,48.7110476 C137.884286,48.7110476 136.825357,48.5210362 136.003333,48.141613 C135.18131,47.7621898 134.471786,47.0950523 133.875357,46.1396011 C133.278333,45.1835505 132.980119,43.9607648 132.980119,42.4706446 C132.980119,40.4830184 133.504524,38.9557351 134.554524,37.8881952 C135.604524,36.8206553 137.089643,36.2871851 139.009881,36.2871851 C140.512857,36.2871851 141.694405,36.5934809 142.554524,37.2048738 C143.414048,37.816866 144.052738,38.7567327 144.470595,40.0238743 L141.215833,40.7533499 C141.101548,40.387713 140.9825,40.1197791 140.8575,39.9501476 C140.650952,39.6666291 140.399167,39.4478464 140.100952,39.2943988 C139.802738,39.1421499 139.46881,39.0654261 139.099762,39.0654261 C138.264643,39.0654261 137.623571,39.4040898 137.178929,40.0802184 C136.842619,40.5825196 136.674762,41.3707368 136.674762,42.446069 C136.674762,43.7767476 136.875357,44.6902404 137.276548,45.1835505 C137.678333,45.6774601 138.242024,45.9244148 138.969405,45.9244148 C139.674762,45.9244148 140.2075,45.724813 140.56881,45.3262089 C140.929524,44.9270053 141.191429,44.3485797 141.353929,43.5891339" id="Fill-15" fill="#FFF" mask="url(#mask-2)"/><path id="Fill-16" fill="#FFF" mask="url(#mask-2)" d="M146.394286 36.4920017L150.080595 36.4920017 150.080595 41.0318933 153.9425 36.4920017 158.845476 36.4920017 154.491905 41.0264987 159.040714 48.5058713 154.500833 48.5058713 151.985952 43.5649779 150.080595 45.5741826 150.080595 48.5058713 146.394286 48.5058713z"/><path d="M199.548333,25.2499256 C199.548333,25.2385369 199.542976,25.2289464 199.541786,25.2181571 L199.541786,24.9502232 L199.27631,24.9502232 C199.265,24.9490244 199.255476,24.9436298 199.244167,24.9436298 L191.298333,24.9436298 L191.298333,0.506497024 C191.298333,0.495108333 191.292976,0.486117262 191.291786,0.474728571 L191.291786,0.206794643 L191.02631,0.206794643 C191.015,0.205595833 191.004881,0.20020119 190.994167,0.20020119 L177.422738,0.20020119 C177.412024,0.20020119 177.401905,0.205595833 177.390595,0.206794643 L177.125119,0.206794643 L177.125119,0.474728571 C177.123929,0.486117262 177.118571,0.495108333 177.118571,0.506497024 L177.118571,31.4537649 C177.118571,31.4651536 177.123929,31.474744 177.125119,31.4855333 L177.125119,31.7534673 L177.390595,31.7534673 C177.401905,31.7546661 177.412024,31.7600607 177.422738,31.7600607 L199.244167,31.7600607 C199.255476,31.7600607 199.265,31.7546661 199.27631,31.7534673 L199.541786,31.7534673 L199.541786,31.4855333 C199.542976,31.474744 199.548333,31.4651536 199.548333,31.4537649 L199.548333,25.2499256 Z" id="Fill-17" fill="#105EB7" mask="url(#mask-2)"/><path d="M24.0955357,0.124376488 L15.2026786,0.124376488 C15.0342262,0.124376488 14.8973214,0.261640179 14.8973214,0.431871131 L14.8973214,12.9204693 C14.10625,11.0479289 13.3056548,9.18437946 12.5050595,7.32083006 C11.503869,4.99094375 10.5026786,2.66045804 9.51994048,0.311990179 C9.47232143,0.198702679 9.3610119,0.124376488 9.23839286,0.124376488 L0.309821429,0.124376488 C0.141369048,0.124376488 0.00446428571,0.261640179 0.00446428571,0.431871131 L0.00446428571,31.5289902 C0.00446428571,31.6986217 0.141369048,31.8358854 0.309821429,31.8358854 L9.23839286,31.8358854 C9.40684524,31.8358854 9.54375,31.6986217 9.54375,31.5289902 L9.54375,19.0158164 C10.2657738,20.8733717 10.996131,22.7267313 11.7270833,24.5800908 C12.653869,26.9303568 13.5806548,29.2806229 14.4895833,31.6398801 C14.5348214,31.7579628 14.6479167,31.8358854 14.7741071,31.8358854 L24.0955357,31.8358854 C24.2639881,31.8358854 24.4008929,31.6986217 24.4008929,31.5289902 L24.4008929,0.431871131 C24.4008929,0.261640179 24.2639881,0.124376488 24.0955357,0.124376488" id="Fill-18" fill="#105EB7" mask="url(#mask-2)"/><path d="M42.6182143,16.274079 L39.9920238,16.274079 C40.2045238,14.3781618 40.7229762,11.6089118 41.4330952,8.02626952 C41.7592857,10.707407 42.1432143,13.3777552 42.6182143,16.274079 M48.4158333,0.437805238 C48.384881,0.297544524 48.2616667,0.198043333 48.1194048,0.198043333 L34.1194048,0.198043333 C33.9741667,0.198043333 33.8497619,0.301140952 33.8211905,0.443799286 C33.1658333,3.77229393 32.4991667,7.10078857 31.8325,10.4292832 C30.8444048,15.3611856 29.8229762,20.4603219 28.8569048,25.4767404 C28.8396429,25.5660517 28.8634524,25.6589594 28.9205952,25.7290898 C28.9783333,25.7998195 29.0640476,25.8399796 29.155119,25.8399796 L39.1908333,25.8399796 C39.3444048,25.8399796 39.4741667,25.7248939 39.4920238,25.5708469 C39.5872619,24.7640481 39.6932143,23.9572493 39.7979762,23.1558451 C39.8777381,22.5480487 39.9563095,21.9438487 40.0307143,21.3444439 L42.9575,21.3444439 C43.1146429,22.6445529 43.2717857,23.9710356 43.4283333,25.2987171 L43.4610714,25.5708469 C43.4789286,25.7248939 43.6086905,25.8399796 43.7622619,25.8399796 L53.6908333,25.8399796 C53.7825,25.8399796 53.8694048,25.7986207 53.9271429,25.7260927 C53.984881,25.6541642 54.0069048,25.5594582 53.9872619,25.4689481 C53.0759524,21.2964915 52.1384524,17.124035 51.2009524,12.9515785 C50.2634524,8.78032071 49.3265476,4.60906298 48.4158333,0.437805238" id="Fill-19" fill="#105EB7" mask="url(#mask-2)"/><path id="Fill-20" fill="#105EB7" mask="url(#mask-2)" d="M54.80375 5.80235798L60.5180357 5.80235798 60.5180357 25.8344651 70.8275595 25.8344651 70.8275595 5.80235798 76.6132738 5.80235798 76.6132738 0.2039175 54.80375 0.2039175z"/><path id="Fill-21" fill="#105EB7" mask="url(#mask-2)" d="M80.4785714 25.8344052L90.7880952 25.8344052 90.7880952 0.20385756 80.4785714 0.20385756z"/><path d="M108.024107,18.4138342 C108.024107,19.8883699 107.916369,20.8234413 107.738393,21.2190485 C107.559821,21.6146556 107.13125,21.8304413 106.452083,21.8304413 C105.809821,21.8304413 105.416964,21.6506199 105.237798,21.290977 C105.059821,20.9672985 104.952679,20.0681913 104.952679,18.6296199 L104.952679,6.94122702 C104.952679,5.64651274 105.095536,4.85529845 105.38125,4.60354845 C105.630655,4.35179845 106.024107,4.20794131 106.523512,4.20794131 C107.13125,4.20794131 107.524107,4.38776274 107.738393,4.71144131 C107.916369,5.03511988 108.024107,5.79036988 108.024107,6.94122702 L108.024107,18.4138342 Z M115.702083,2.62551274 C114.738393,1.7264056 113.452679,1.07904845 111.880655,0.647477024 C110.274107,0.17994131 108.488393,0.000119880952 106.488393,0.000119880952 C104.38125,0.000119880952 102.524107,0.215905595 100.952679,0.68344131 C99.38125,1.15097702 98.0955357,1.79833417 97.2026786,2.66147702 C96.2741071,3.56058417 95.7026786,4.4956556 95.5241071,5.53861988 C95.3455357,6.58158417 95.2741071,8.34383417 95.2741071,10.8613342 L95.2741071,15.1410842 C95.2741071,17.7305127 95.3455357,19.528727 95.5241071,20.5716913 C95.7026786,21.5786913 96.3098214,22.5137627 97.2741071,23.4128699 C98.2383929,24.311977 99.5241071,24.9233699 101.13125,25.3909056 C102.702679,25.822477 104.488393,26.0382627 106.488393,26.0382627 C108.595536,26.0382627 110.416964,25.822477 112.024107,25.3549413 C113.59494,24.8874056 114.88125,24.2400485 115.809821,23.3409413 C116.702679,22.4777985 117.274107,21.542727 117.452679,20.4997627 C117.63125,19.4567985 117.702679,17.6585842 117.702679,15.1410842 L117.702679,10.8613342 C117.702679,8.30786988 117.63125,6.5096556 117.452679,5.46669131 C117.274107,4.42372702 116.666964,3.4886556 115.702083,2.62551274 L115.702083,2.62551274 Z" id="Fill-22" fill="#105EB7" mask="url(#mask-2)"/><path d="M144.327798,0.203737679 L144.05875,0.203737679 C144.048631,0.203138274 144.040893,0.197743631 144.030179,0.197743631 L135.923036,0.197743631 C135.912321,0.197743631 135.904583,0.203138274 135.893869,0.203737679 L135.625417,0.203737679 L135.625417,0.474668631 C135.624226,0.484259107 135.619464,0.493250179 135.619464,0.50344006 L135.619464,10.4235889 C135.010536,9.15764601 134.39506,7.89110375 133.778393,6.62276327 C132.769464,4.54642518 131.758155,2.46469244 130.768869,0.372170417 C130.765298,0.36497756 130.75756,0.361980536 130.753393,0.354787679 L130.681964,0.203737679 L130.514702,0.203737679 C130.506964,0.203138274 130.501012,0.197743631 130.494464,0.197743631 L122.387321,0.197743631 C122.376607,0.197743631 122.368274,0.203138274 122.358155,0.203737679 L122.089702,0.203737679 L122.089702,0.474668631 C122.088512,0.484259107 122.08375,0.493250179 122.08375,0.50344006 L122.08375,25.5345829 C122.08375,25.5447728 122.088512,25.5537639 122.089702,25.5639537 L122.089702,25.8342853 L122.358155,25.8342853 C122.368274,25.8354841 122.376607,25.8402793 122.387321,25.8402793 L130.494464,25.8402793 C130.504583,25.8402793 130.512917,25.8354841 130.523036,25.8342853 L130.792083,25.8342853 L130.792083,25.5639537 C130.793274,25.5537639 130.798036,25.5447728 130.798036,25.5345829 L130.798036,15.5958526 C131.439702,17.0619966 132.095655,18.5293395 132.73494,19.9595192 C133.568869,21.8242674 134.430774,23.7525526 135.251607,25.6562621 C135.254583,25.6628555 135.261726,25.6658526 135.264107,25.6718466 L135.33494,25.8342853 L135.510536,25.8342853 C135.517083,25.8348847 135.523036,25.8402793 135.530179,25.8402793 L144.030179,25.8402793 C144.040893,25.8402793 144.048631,25.8354841 144.05875,25.8342853 L144.327798,25.8342853 L144.327798,25.5639537 C144.328988,25.5537639 144.33375,25.5447728 144.33375,25.5345829 L144.33375,0.50344006 C144.33375,0.493250179 144.328988,0.484259107 144.327798,0.474668631 L144.327798,0.203737679 Z" id="Fill-23" fill="#105EB7" mask="url(#mask-2)"/><path d="M161.517024,16.274079 L158.890833,16.274079 C159.103333,14.3781618 159.621786,11.6089118 160.3325,8.02686893 C160.65869,10.7122023 161.042619,13.3825505 161.517024,16.274079 M167.314048,0.437805238 C167.28369,0.297544524 167.159881,0.198043333 167.017619,0.198043333 L153.018214,0.198043333 C152.873571,0.198043333 152.748571,0.301140952 152.720595,0.443799286 C152.062262,3.78608024 151.392619,7.12836119 150.722976,10.4700427 C149.738452,15.3881588 148.719405,20.4741082 147.755714,25.4767404 C147.739048,25.5660517 147.762262,25.6589594 147.819405,25.7290898 C147.877143,25.7998195 147.962857,25.8399796 148.053929,25.8399796 L158.089048,25.8399796 C158.242619,25.8399796 158.372381,25.7248939 158.390833,25.5708469 C158.486071,24.7622499 158.592619,23.9536529 158.697381,23.1504505 C158.776548,22.5444523 158.855714,21.9420505 158.929524,21.3444439 L161.855714,21.3444439 C162.024167,22.7338642 162.192024,24.1520558 162.359286,25.5708469 C162.377738,25.7248939 162.506905,25.8399796 162.661071,25.8399796 L172.589643,25.8399796 C172.68131,25.8399796 172.768214,25.7986207 172.825952,25.7260927 C172.88369,25.6541642 172.905714,25.5594582 172.886071,25.4689481 C171.972381,21.2851029 171.0325,17.1012576 170.092024,12.9174124 C169.1575,8.75754333 168.222976,4.59767429 167.314048,0.437805238" id="Fill-24" fill="#105EB7" mask="url(#mask-2)"/></g></g></g></g></svg>